<svg id="Layer_1" xmlns="http://www.w3.org/2000/svg" viewBox="0 0 74 38"><style>.st0{fill:#5c636b}</style><path class="st0" d="M34.5 4l-1.9.4-3.8 7.9-2.4-6.8-4.3.8 1.7 4.9-1.1 2.2-2.4-6.8-4.3.8 4.8 13.5 3.7-7.7 2.4 6.6zm5.7 12.8l.1-1.3-2.6.5c-.2 0-.4.1-.5 0H37c-.1 0-.2-.1-.3-.2 0-.1-.1-.3 0-.6l.2-1.7 3.1-.6.1-1.3-3.1.6.2-1.5c0-.4.2-.7.3-.9.2-.2.5-.3.9-.4l2.4-.4.1-1.3-4.3.8c-1.5.3-2.3 1.1-2.5 2.6l-.5 5.3c-.1.7.1 1.1.4 1.3.2.1.4.2.6.2h.2c.2 0 .5 0 .8-.1l4.6-1zm6.1-1.1c1-.2 1.8-.5 2.6-1s1.4-1.2 1.9-1.9c.5-.8.8-1.7.8-2.6.1-.7 0-1.3-.2-1.8s-.5-1-1-1.3c-.4-.3-1-.5-1.6-.6h-.7c-.4 0-.8 0-1.3.1-.4.1-.8.2-1.3.3l.6-5.7-3.1.6-1.5 14.7 4.8-.8zm.2-7.8h.2c.4 0 .8.2 1 .5.4.5.5 1.3.4 2.4-.1 1.2-.4 2.1-.9 2.7-.5.6-1.1.9-2 1.1l-.5.1.7-6.6c.2-.1.3-.1.5-.1.2-.1.4-.1.6-.1zM6.9 33.2l8.3-13.4L2.9 22l-.2 2 6.6-1.2L1 36.1l12.2-2.2.2-2-6.5 1.3zm11.7-1.5c-.2 0-.4.1-.5.1h-.2c-.1 0-.2-.1-.3-.2 0-.1-.1-.3 0-.6l.2-1.7 3.1-.6.1-1.3-3.1.6.2-1.5c0-.4.1-.7.3-.9s.5-.3.9-.4l2.4-.4.1-1.3-4.3.8c-1.5.3-2.3 1.1-2.5 2.6l-.5 5.3c-.1.7.1 1.1.4 1.3.2.1.4.2.6.2h.2c.2 0 .5 0 .8-.1l4.6-.8.1-1.3-2.6.2zm13.3-8.2c-.5-.6-1.1-1-1.9-1.2-.2 0-.4-.1-.6-.1h-.5c-.5 0-1.1 0-1.7.2l-3.8.6L22 36.3l3.1-.6.4-4.1.4-.1c1-.2 1.7-.4 2.3-.6.6-.2 1.1-.5 1.6-.8.7-.5 1.3-1.1 1.7-1.9.4-.7.7-1.5.8-2.3.2-.9.1-1.8-.4-2.4zm-5.1.1c.2 0 .4-.1.6-.1h.1c.3 0 .6.1.8.3.3.3.6.7.7 1.2s.1 1.1.1 1.7c-.1 1-.4 1.8-.9 2.5-.5.6-1.2 1-1.9 1.2-.2 0-.3 0-.4.1l.7-6.8.2-.1zm16.3-2.2c-.5-.6-1.1-1-1.9-1.2-.2 0-.4-.1-.6-.1h-.5c-.5 0-1.1 0-1.7.1l-3.8.7-1.4 13.3 3.1-.6.4-4.1.4-.1c1-.2 1.7-.4 2.3-.6.6-.2 1.2-.5 1.6-.8.7-.5 1.3-1.1 1.7-1.9.4-.7.7-1.5.8-2.3.2-.9 0-1.8-.4-2.4zm-5.1.2c.2 0 .4-.1.5 0h.1c.3 0 .6.1.8.3.3.3.6.7.7 1.2s.1 1.1.1 1.7c-.1 1-.4 1.8-.9 2.5-.5.6-1.2 1-1.9 1.2-.2 0-.3 0-.4.1l.7-6.8.3-.2zm10.6 4.6c-.2 0-.4.1-.5 0H48c-.1 0-.2-.1-.3-.2 0-.1-.1-.3 0-.6l.2-1.7 3.1-.6.1-1.3-3.1.6.2-1.5c0-.4.1-.7.3-.9.2-.2.5-.3.9-.4l2.4-.4.1-1.3-4.3.8c-1.5.3-2.3 1.1-2.5 2.6l-.5 5.2c-.1.7.1 1.1.4 1.3.2.1.4.2.6.2h.2c.2 0 .5 0 .8-.1l4.6-.8.1-1.3-2.7.4zm8.5-1.5c-.3 0-.5.1-.7.1h-.2c-.2 0-.3-.1-.3-.3v-.8l1.3-12.3-3.1.6-1.3 12.2c-.1.9 0 1.5.3 1.9.2.2.5.4.9.4h.2c.2 0 .5 0 .8-.1l2.8-.5.1-1.3-.8.1zm3.1-10.8c.2.2.4.2.6.3h.4c.4-.1.8-.3 1.1-.6.3-.3.5-.7.6-1.1 0-.4-.1-.7-.3-1-.2-.2-.4-.3-.6-.3h-.4c-.4.1-.8.3-1.1.6-.3.4-.5.7-.6 1.2-.1.3.1.6.3.9zm-.7 2.6l-.9 9.2 3-.5 1-9.3zM72 14.3l-1.5.3-.5 4.8-2.5-3.7-.3-.3c-.1-.1-.3-.1-.5-.1h-.1c-.2 0-.4 0-.7.1-.5.1-1 .4-1.2.9-.3.5-.4 1-.5 1.6l-.7 7.2 1.5-.3.6-6 2.9 4.5c.2.3.4.6.6.7.1.1.2.1.4.1h.5c.5-.1.8-.3 1-.7s.3-.9.4-1.4l.6-7.7z"/></svg>