<?xml version="1.0" encoding="utf-8"?>
<!-- Generator: Adobe Illustrator 21.0.0, SVG Export Plug-In . SVG Version: 6.00 Build 0)  -->
<svg version="1.1" id="Layer_1" xmlns="http://www.w3.org/2000/svg" xmlns:xlink="http://www.w3.org/1999/xlink" x="0px" y="0px"
	 viewBox="0 0 74 38" style="enable-background:new 0 0 74 38;" xml:space="preserve">
<style type="text/css">
	.st0{fill:#5C636B;}
</style>
<g>
	<g>
		<polygon class="st0" points="34.5,4 32.6,4.4 28.8,12.3 26.4,5.5 22.1,6.3 23.8,11.2 22.7,13.4 20.3,6.6 16,7.4 20.8,20.9 
			24.5,13.2 26.9,19.8 		"/>
		<path class="st0" d="M40.2,16.8l0.1-1.3L37.7,16c-0.2,0-0.4,0.1-0.5,0h-0.1H37c-0.1,0-0.2-0.1-0.3-0.2c0-0.1-0.1-0.3,0-0.6
			l0.2-1.7l3.1-0.6l0.1-1.3L37,12.2l0.2-1.5c0-0.4,0.2-0.7,0.3-0.9c0.2-0.2,0.5-0.3,0.9-0.4L40.8,9l0.1-1.3l-4.3,0.8
			c-1.5,0.3-2.3,1.1-2.5,2.6l-0.5,5.3c-0.1,0.7,0.1,1.1,0.4,1.3c0.2,0.1,0.4,0.2,0.6,0.2c0.1,0,0.1,0,0.2,0c0.2,0,0.5,0,0.8-0.1
			L40.2,16.8z"/>
		<path class="st0" d="M46.3,15.7c1-0.2,1.8-0.5,2.6-1c0.8-0.5,1.4-1.2,1.9-1.9c0.5-0.8,0.8-1.7,0.8-2.6c0.1-0.7,0-1.3-0.2-1.8
			s-0.5-1-1-1.3c-0.4-0.3-1-0.5-1.6-0.6c-0.1,0-0.2,0-0.3,0c-0.1,0-0.2,0-0.4,0c-0.4,0-0.8,0-1.3,0.1c-0.4,0.1-0.8,0.2-1.3,0.3
			l0.6-5.7L43,1.8l-1.5,14.7L46.3,15.7z M46.5,7.9c0.1,0,0.1,0,0.2,0c0.4,0,0.8,0.2,1,0.5c0.4,0.5,0.5,1.3,0.4,2.4
			c-0.1,1.2-0.4,2.1-0.9,2.7c-0.5,0.6-1.1,0.9-2,1.1l-0.5,0.1l0.7-6.6C45.6,8,45.7,8,45.9,8C46.1,7.9,46.3,7.9,46.5,7.9z"/>
	</g>
	<g>
		<path class="st0" d="M6.9,33.2l8.3-13.4L2.9,22l-0.2,2l6.6-1.2L1,36.1l12.2-2.2l0.2-2L6.9,33.2z"/>
		<path class="st0" d="M18.6,31.7c-0.2,0-0.4,0.1-0.5,0.1H18h-0.1c-0.1,0-0.2-0.1-0.3-0.2c0-0.1-0.1-0.3,0-0.6l0.2-1.7l3.1-0.6
			l0.1-1.3L17.9,28l0.2-1.5c0-0.4,0.1-0.7,0.3-0.9s0.5-0.3,0.9-0.4l2.4-0.4l0.1-1.3l-4.3,0.8c-1.5,0.3-2.3,1.1-2.5,2.6l-0.5,5.3
			c-0.1,0.7,0.1,1.1,0.4,1.3c0.2,0.1,0.4,0.2,0.6,0.2c0.1,0,0.1,0,0.2,0c0.2,0,0.5,0,0.8-0.1l4.6-0.8l0.1-1.3L18.6,31.7z"/>
		<path class="st0" d="M31.9,23.5c-0.5-0.6-1.1-1-1.9-1.2c-0.2,0-0.4-0.1-0.6-0.1c-0.1,0-0.3,0-0.5,0c-0.5,0-1.1,0-1.7,0.2L23.4,23
			L22,36.3l3.1-0.6l0.4-4.1l0.4-0.1c1-0.2,1.7-0.4,2.3-0.6c0.6-0.2,1.1-0.5,1.6-0.8c0.7-0.5,1.3-1.1,1.7-1.9
			c0.4-0.7,0.7-1.5,0.8-2.3C32.5,25,32.4,24.1,31.9,23.5z M26.8,23.6c0.2,0,0.4-0.1,0.6-0.1h0.1c0.3,0,0.6,0.1,0.8,0.3
			c0.3,0.3,0.6,0.7,0.7,1.2s0.1,1.1,0.1,1.7c-0.1,1-0.4,1.8-0.9,2.5c-0.5,0.6-1.2,1-1.9,1.2c-0.2,0-0.3,0-0.4,0.1l0.7-6.8L26.8,23.6
			z"/>
		<path class="st0" d="M43.1,21.4c-0.5-0.6-1.1-1-1.9-1.2c-0.2,0-0.4-0.1-0.6-0.1s-0.3,0-0.5,0c-0.5,0-1.1,0-1.7,0.1l-3.8,0.7
			l-1.4,13.3l3.1-0.6l0.4-4.1l0.4-0.1c1-0.2,1.7-0.4,2.3-0.6c0.6-0.2,1.2-0.5,1.6-0.8c0.7-0.5,1.3-1.1,1.7-1.9
			c0.4-0.7,0.7-1.5,0.8-2.3C43.7,22.9,43.5,22,43.1,21.4z M38,21.6c0.2,0,0.4-0.1,0.5,0c0.1,0,0.1,0,0.1,0c0.3,0,0.6,0.1,0.8,0.3
			c0.3,0.3,0.6,0.7,0.7,1.2s0.1,1.1,0.1,1.7c-0.1,1-0.4,1.8-0.9,2.5c-0.5,0.6-1.2,1-1.9,1.2c-0.2,0-0.3,0-0.4,0.1l0.7-6.8L38,21.6z"
			/>
		<path class="st0" d="M48.6,26.2c-0.2,0-0.4,0.1-0.5,0H48c-0.1,0-0.2-0.1-0.3-0.2c0-0.1-0.1-0.3,0-0.6l0.2-1.7l3.1-0.6l0.1-1.3
			L48,22.4l0.2-1.5c0-0.4,0.1-0.7,0.3-0.9c0.2-0.2,0.5-0.3,0.9-0.4l2.4-0.4l0.1-1.3l-4.3,0.8c-1.5,0.3-2.3,1.1-2.5,2.6l-0.5,5.2
			c-0.1,0.7,0.1,1.1,0.4,1.3c0.2,0.1,0.4,0.2,0.6,0.2c0.1,0,0.1,0,0.2,0c0.2,0,0.5,0,0.8-0.1l4.6-0.8l0.1-1.3L48.6,26.2z"/>
		<path class="st0" d="M57.1,24.7c-0.3,0-0.5,0.1-0.7,0.1h-0.1h-0.1c-0.2,0-0.3-0.1-0.3-0.3s0-0.4,0-0.8l1.3-12.3L54.1,12l-1.3,12.2
			c-0.1,0.9,0,1.5,0.3,1.9c0.2,0.2,0.5,0.4,0.9,0.4c0.1,0,0.1,0,0.2,0c0.2,0,0.5,0,0.8-0.1l2.8-0.5l0.1-1.3L57.1,24.7z"/>
		<path class="st0" d="M60.2,13.9c0.2,0.2,0.4,0.2,0.6,0.3h0.1c0.1,0,0.2,0,0.3,0c0.4-0.1,0.8-0.3,1.1-0.6c0.3-0.3,0.5-0.7,0.6-1.1
			c0-0.4-0.1-0.7-0.3-1c-0.2-0.2-0.4-0.3-0.6-0.3h-0.1c-0.1,0-0.2,0-0.3,0c-0.4,0.1-0.8,0.3-1.1,0.6c-0.3,0.4-0.5,0.7-0.6,1.2
			C59.8,13.3,60,13.6,60.2,13.9z"/>
		<polygon class="st0" points="59.5,16.5 58.6,25.7 61.6,25.2 62.6,15.9 		"/>
		<path class="st0" d="M72,14.3l-1.5,0.3L70,19.4l-2.5-3.7c-0.1-0.1-0.2-0.2-0.3-0.3c-0.1-0.1-0.3-0.1-0.5-0.1h-0.1
			c-0.2,0-0.4,0-0.7,0.1c-0.5,0.1-1,0.4-1.2,0.9c-0.3,0.5-0.4,1-0.5,1.6l-0.7,7.2l1.5-0.3l0.6-6l2.9,4.5c0.2,0.3,0.4,0.6,0.6,0.7
			c0.1,0.1,0.2,0.1,0.4,0.1h0.1c0.1,0,0.2,0,0.4,0c0.5-0.1,0.8-0.3,1-0.7s0.3-0.9,0.4-1.4L72,14.3z"/>
	</g>
</g>
</svg>
