<?xml version="1.0" encoding="utf-8"?>
<!-- Generator: Adobe Illustrator 21.0.0, SVG Export Plug-In . SVG Version: 6.00 Build 0)  -->
<svg version="1.1" id="Layer_1" xmlns="http://www.w3.org/2000/svg" xmlns:xlink="http://www.w3.org/1999/xlink" x="0px" y="0px"
	 viewBox="0 0 64 74" style="enable-background:new 0 0 64 74;" xml:space="preserve">
<style type="text/css">
	.st0{fill:#D6811E;}
	.st1{fill:#FFFFFF;}
</style>
<polygon class="st0" points="31.9,1.5 1,19.4 1,55.1 31.9,73 62.9,55.1 62.9,19.4 "/>
<polygon class="st1" points="44.9,44.7 31.9,52.2 19,44.7 19,29.8 31.9,22.3 44.9,29.8 "/>
<g>
	<polygon points="31.9,15.8 31.9,15.8 45.3,23.5 58.1,30.9 58.1,23.6 31.9,8.5 25.6,12.1 	"/>
	<g>
		<polygon points="44.6,61.7 58.1,53.9 58.1,38.2 51.8,34.5 51.8,50.2 38.3,58.1 		"/>
		<polygon points="31.9,61.7 31.9,61.7 25.7,58.1 5.7,46.6 5.7,53.9 31.9,69 38.3,65.3 		"/>
		<polygon points="12,42.9 12,27.2 25.6,19.4 19.3,15.8 5.7,23.6 5.7,39.3 		"/>
	</g>
</g>
</svg>
